<svg width="139" height="25" viewBox="0 0 139 25" fill="none" xmlns="http://www.w3.org/2000/svg">
<path d="M21.0477 7.57482L18.1945 17.9133L15.14 7.57482H11.0449L7.99032 17.8797L5.13717 7.57482H0.538574L5.87564 24.358H10.0043L13.0924 14.1874L16.1805 24.358H20.3092L25.6463 7.57482H21.0477ZM35.3134 24.828C40.2477 24.828 44.2085 20.9678 44.2085 15.9664C44.2085 10.965 40.2477 7.10489 35.3134 7.10489C30.3791 7.10489 26.4519 10.965 26.4519 15.9664C26.4519 20.9678 30.3791 24.828 35.3134 24.828ZM35.3134 20.5986C32.7623 20.5986 30.7819 18.6853 30.7819 15.9664C30.7819 13.2475 32.7623 11.3343 35.3134 11.3343C37.898 11.3343 39.8784 13.2475 39.8784 15.9664C39.8784 18.6853 37.898 20.5986 35.3134 20.5986ZM51.5847 10.4615V7.57482H47.2547V24.358H51.5847V16.3357C51.5847 12.8112 54.4379 11.8042 56.6868 12.0727V7.23915C54.5721 7.23915 52.4575 8.17901 51.5847 10.4615ZM74.6924 24.358L67.7456 15.8657L74.4924 7.57482H69.3218L63.5484 14.9594V0.861532H59.2183V24.358H63.5484V16.7385L69.6575 24.358H74.6924ZM85.884 0.391602C80.547 0.391602 77.9959 2.77482 77.9959 7.40699V7.57482H75.5791V11.7371H77.9959V24.358H82.326V11.7371H85.112V7.57482H82.326V7.40699C82.326 5.12447 83.6351 4.18461 85.884 4.18461C86.3204 4.18461 86.7903 4.18461 87.2602 4.21818V24.358H91.5903V1.0965C89.7442 0.727266 87.9987 0.391602 85.884 0.391602ZM103.527 24.828C108.462 24.828 112.422 20.9678 112.422 15.9664C112.422 10.965 108.462 7.10489 103.527 7.10489C98.5931 7.10489 94.6658 10.965 94.6658 15.9664C94.6658 20.9678 98.5931 24.828 103.527 24.828ZM103.527 20.5986C100.976 20.5986 98.9959 18.6853 98.9959 15.9664C98.9959 13.2475 100.976 11.3343 103.527 11.3343C106.112 11.3343 108.092 13.2475 108.092 15.9664C108.092 18.6853 106.112 20.5986 103.527 20.5986ZM133.712 7.57482L130.859 17.9133L127.804 7.57482H123.709L120.655 17.8797L117.802 7.57482H113.203L118.54 24.358H122.669L125.757 14.1874L128.845 24.358H132.974L138.311 7.57482H133.712Z" fill="#4338CA"/>
</svg>
