<svg width="47" height="43" viewBox="0 0 47 43" fill="none" xmlns="http://www.w3.org/2000/svg">
<path d="M19.958 38.7727C20.2301 38.0722 20.3598 37.3245 20.3396 36.5733C20.3811 34.4913 20.9375 32.4521 21.9592 30.6376C22.9783 28.8262 24.4317 27.2964 26.1885 26.1859C26.8391 25.8369 27.412 25.3596 27.8728 24.7829C28.3335 24.2062 28.6725 23.5419 28.8691 22.8304C29.0657 22.1189 29.116 21.3749 29.0168 20.6434C28.9176 19.9119 28.671 19.2081 28.292 18.5747C27.7857 17.7285 27.0571 17.0348 26.1885 16.5733C25.6906 16.2278 25.2123 15.8558 24.7564 15.4572L23.6137 14.3383C21.5199 12.1372 20.3458 9.21953 20.3312 6.18166C20.3528 5.43028 20.2238 4.68218 19.9516 3.98149C19.6794 3.2808 19.2697 2.64172 18.7466 2.10193C18.2258 1.56276 17.6017 1.13403 16.9116 0.841352C16.2214 0.548672 15.4794 0.398037 14.7298 0.398438C13.9806 0.399495 13.2392 0.550798 12.5495 0.843397C11.8598 1.136 11.2358 1.56395 10.7144 2.10193C10.1922 2.64267 9.78309 3.28212 9.511 3.98287C9.23891 4.68363 9.10932 5.43161 9.1298 6.18305C9.14201 7.15849 9.41068 8.11354 9.90882 8.95228C10.4052 9.78961 11.114 10.481 11.9634 10.9565C15.4025 13.1327 17.7955 17.2935 17.7955 21.3859C17.787 24.3973 16.6353 27.2932 14.5732 29.4879L11.9718 31.7984C11.1228 32.2726 10.4137 32.9635 9.91581 33.8026C9.41651 34.6404 9.14938 35.597 9.13679 36.5733C9.1154 37.3246 9.24458 38.0726 9.51672 38.7733C9.78886 39.474 10.1985 40.1131 10.7214 40.653C11.2423 41.192 11.8664 41.6207 12.5565 41.9133C13.2466 42.206 13.9886 42.3567 14.7382 42.3565C15.4876 42.3556 16.2293 42.2044 16.9192 41.9118C17.6092 41.6192 18.2334 41.1911 18.755 40.653C19.2769 40.1124 19.6859 39.4731 19.958 38.7727Z" fill="#8DA2FB"/>
<path d="M27.555 9.29354C26.9382 8.36767 26.6095 7.27816 26.6095 6.16487C26.6105 4.67358 27.2012 3.2432 28.2529 2.18585C29.1673 1.26591 30.3733 0.692848 31.6641 0.564996C32.9549 0.437144 34.2499 0.762467 35.327 1.48515C36.2496 2.1046 36.968 2.98356 37.3913 4.01103C37.8147 5.03966 37.9253 6.17036 37.7091 7.26152C37.4929 8.35268 36.9596 9.35581 36.1759 10.1453C35.3947 10.9326 34.3966 11.4692 33.3089 11.6867C32.2213 11.9042 31.0936 11.7926 30.0697 11.3663C29.0448 10.9395 28.1696 10.2181 27.555 9.29354Z" fill="#8DA2FB"/>
<path d="M29.1004 31.8921C30.0221 31.274 31.106 30.9439 32.2137 30.9439V30.9411C32.95 30.942 33.679 31.0882 34.3587 31.3714C35.0383 31.6546 35.6554 32.0692 36.1746 32.5914C37.0919 33.5144 37.6626 34.7257 37.79 36.0208C37.9174 37.3158 37.5938 38.6151 36.8739 39.6991C36.2593 40.625 35.3836 41.3474 34.3578 41.7747C33.3338 42.201 32.2061 42.3126 31.1185 42.0951C30.0309 41.8776 29.0327 41.341 28.2515 40.5537C27.4676 39.7641 26.9341 38.7607 26.7179 37.6693C26.5017 36.5778 26.6124 35.4468 27.0361 34.418C27.4595 33.3906 28.1779 32.5117 29.1004 31.8921Z" fill="#8DA2FB"/>
<path d="M45.6081 18.2418C46.2233 19.1673 46.5519 20.255 46.5522 21.3679C46.5512 22.8595 45.9605 24.2903 44.9088 25.3481C44.3896 25.8701 43.7724 26.2846 43.0928 26.5678C42.4131 26.851 41.6843 26.9973 40.948 26.9984C39.8391 26.9985 38.7553 26.6683 37.8347 26.0502C36.9121 25.4307 36.1937 24.5518 35.7704 23.5243C35.3466 22.4955 35.236 21.3645 35.4522 20.2731C35.6684 19.1816 36.2018 18.1783 36.9857 17.3886C37.7671 16.6011 38.7655 16.0642 39.8534 15.8468C40.9413 15.6293 42.0693 15.741 43.0934 16.1677C44.1185 16.5948 44.9937 17.3167 45.6081 18.2418Z" fill="#8DA2FB"/>
<path d="M2.88929 16.6879C3.81097 16.0698 4.89349 15.7397 6.00258 15.7397C6.73873 15.7413 7.46734 15.8879 8.14675 16.1714C8.82615 16.4548 9.443 16.8694 9.96202 17.3914C10.879 18.314 11.4493 19.5249 11.5767 20.8194C11.7041 22.1139 11.3808 23.4127 10.6613 24.4963C10.0469 25.4214 9.17168 26.1432 8.14663 26.5705C7.12235 26.9947 5.99512 27.1052 4.90796 26.8878C3.8208 26.6704 2.82271 26.135 2.04034 25.3495C1.25671 24.56 0.723404 23.5569 0.507212 22.4657C0.29102 21.3745 0.401548 20.2439 0.824956 19.2152C1.24816 18.1873 1.96652 17.3078 2.88929 16.6879Z" fill="#8DA2FB"/>
</svg>
